<?xml version="1.0" encoding="us-ascii" standalone="no"?><svg xmlns="http://www.w3.org/2000/svg" xmlns:xlink="http://www.w3.org/1999/xlink" contentStyleType="text/css" height="304px" preserveAspectRatio="none" style="width:968px;height:304px;background:#FFFFFF;" version="1.1" viewBox="0 0 968 304" width="968px" zoomAndPan="magnify"><defs/><g><!--entity htank--><g id="elem_htank"><path d="M6,20.5 C6,10.5 92,10.5 92,10.5 C92,10.5 178,10.5 178,20.5 L178,110.9844 C178,120.9844 92,120.9844 92,120.9844 C92,120.9844 6,120.9844 6,110.9844 L6,20.5 " fill="#F1F1F1" style="stroke:#181818;stroke-width:0.5;"/><path d="M6,20.5 C6,30.5 92,30.5 92,30.5 C92,30.5 178,30.5 178,20.5 " fill="none" style="stroke:#181818;stroke-width:0.5;"/><text fill="#000000" font-family="sans-serif" font-size="14" lengthAdjust="spacing" textLength="4" x="16" y="47.4951">&#160;</text><text fill="#000000" font-family="sans-serif" font-size="14" lengthAdjust="spacing" textLength="4" x="16" y="63.792">&#160;</text><text fill="#000000" font-family="sans-serif" font-size="14" lengthAdjust="spacing" textLength="148" x="16" y="80.0889">Wasserstoffspeicher</text><text fill="#000000" font-family="sans-serif" font-size="14" lengthAdjust="spacing" textLength="4" x="16" y="96.3857">&#160;</text><text fill="#000000" font-family="sans-serif" font-size="14" lengthAdjust="spacing" textLength="4" x="16" y="112.6826">&#160;</text></g><!--entity bzelle--><g id="elem_bzelle"><polygon fill="#F1F1F1" points="293,52.5,303,42.5,445,42.5,445,78.7969,435,88.7969,293,88.7969,293,52.5" style="stroke:#181818;stroke-width:0.5;"/><line style="stroke:#181818;stroke-width:0.5;" x1="435" x2="445" y1="52.5" y2="42.5"/><line style="stroke:#181818;stroke-width:0.5;" x1="293" x2="435" y1="52.5" y2="52.5"/><line style="stroke:#181818;stroke-width:0.5;" x1="435" x2="435" y1="52.5" y2="88.7969"/><text fill="#000000" font-family="sans-serif" font-size="14" lengthAdjust="spacing" textLength="112" x="308" y="75.4951">Brennstoffzelle</text></g><!--entity Laderegler--><g id="elem_Laderegler"><polygon fill="#F1F1F1" points="520.5,16,530.5,6,745.5,6,745.5,115.4844,735.5,125.4844,520.5,125.4844,520.5,16" style="stroke:#181818;stroke-width:0.5;"/><line style="stroke:#181818;stroke-width:0.5;" x1="735.5" x2="745.5" y1="16" y2="6"/><line style="stroke:#181818;stroke-width:0.5;" x1="520.5" x2="735.5" y1="16" y2="16"/><line style="stroke:#181818;stroke-width:0.5;" x1="735.5" x2="735.5" y1="16" y2="125.4844"/><text fill="#000000" font-family="sans-serif" font-size="14" lengthAdjust="spacing" textLength="77" x="535.5" y="38.9951">Laderegler</text><line style="stroke:#181818;stroke-width:1.0;" x1="520.5" x2="735.5" y1="42.2969" y2="42.2969"/><line style="stroke:#181818;stroke-width:1.0;" x1="735.5" x2="745.5" y1="42.2969" y2="32.2969"/><text fill="#000000" font-family="sans-serif" font-size="14" lengthAdjust="spacing" textLength="122" x="535.5" y="59.292">CC-CV Verfahren</text><text fill="#000000" font-family="sans-serif" font-size="14" lengthAdjust="spacing" textLength="181" x="535.5" y="75.5889">&#220;berwacht das Laden mit</text><text fill="#000000" font-family="sans-serif" font-size="14" lengthAdjust="spacing" textLength="162" x="535.5" y="91.8857">konstanten Strom und</text><text fill="#000000" font-family="sans-serif" font-size="14" lengthAdjust="spacing" textLength="155" x="535.5" y="108.1826">konstanter Spannung</text></g><!--entity Batterie--><g id="elem_Batterie"><polygon fill="#F1F1F1" points="851,52.5,861,42.5,951,42.5,951,78.7969,941,88.7969,851,88.7969,851,52.5" style="stroke:#181818;stroke-width:0.5;"/><line style="stroke:#181818;stroke-width:0.5;" x1="941" x2="951" y1="52.5" y2="42.5"/><line style="stroke:#181818;stroke-width:0.5;" x1="851" x2="941" y1="52.5" y2="52.5"/><line style="stroke:#181818;stroke-width:0.5;" x1="941" x2="941" y1="52.5" y2="88.7969"/><text fill="#000000" font-family="sans-serif" font-size="14" lengthAdjust="spacing" textLength="60" x="866" y="75.4951">Batterie</text></g><!--entity Steuereinheit--><g id="elem_Steuereinheit"><polygon fill="#F1F1F1" points="384,227,394,217,600,217,600,277.5938,590,287.5938,384,287.5938,384,227" style="stroke:#181818;stroke-width:0.5;"/><line style="stroke:#181818;stroke-width:0.5;" x1="590" x2="600" y1="227" y2="217"/><line style="stroke:#181818;stroke-width:0.5;" x1="384" x2="590" y1="227" y2="227"/><line style="stroke:#181818;stroke-width:0.5;" x1="590" x2="590" y1="227" y2="287.5938"/><text fill="#000000" font-family="sans-serif" font-size="14" lengthAdjust="spacing" textLength="99" x="399" y="249.9951">Steuereinheit</text><line style="stroke:#181818;stroke-width:1.0;" x1="384" x2="590" y1="253.2969" y2="253.2969"/><line style="stroke:#181818;stroke-width:1.0;" x1="590" x2="600" y1="253.2969" y2="243.2969"/><text fill="#000000" font-family="sans-serif" font-size="14" lengthAdjust="spacing" textLength="176" x="399" y="270.292">Mit Notstromversorgung</text></g><!--link htank to bzelle--><g id="link_htank_bzelle"><path d="M178.126,65.5 C214.813,65.5 257.249,65.5 292.779,65.5 " fill="none" id="htank-bzelle" style="stroke:#181818;stroke-width:2.0;"/><text fill="#000000" font-family="sans-serif" font-size="13" lengthAdjust="spacing" textLength="78" x="196.5" y="58.5669">Wasserstoff</text></g><!--link bzelle to Laderegler--><g id="link_bzelle_Laderegler"><path d="M445.006,65.5 C468.464,65.5 494.818,65.5 520.204,65.5 " fill="none" id="bzelle-Laderegler" style="stroke:#181818;stroke-width:1.0;"/><text fill="#000000" font-family="sans-serif" font-size="13" lengthAdjust="spacing" textLength="39" x="463.25" y="58.5669">Strom</text></g><!--link Laderegler to Batterie--><g id="link_Laderegler_Batterie"><path d="M745.879,65.5 C782.501,65.5 821.281,65.5 850.906,65.5 " fill="none" id="Laderegler-Batterie" style="stroke:#181818;stroke-width:1.0;"/><text fill="#000000" font-family="sans-serif" font-size="13" lengthAdjust="spacing" textLength="69" x="763.75" y="58.5669">Ladestrom</text></g><!--link Laderegler to Steuereinheit--><g id="link_Laderegler_Steuereinheit"><path d="M588.387,125.035 C565.393,155.205 538.132,190.972 518.48,216.7572 " fill="none" id="Laderegler-Steuereinheit" style="stroke:#FF0000;stroke-width:1.0;"/><text fill="#FF0000" font-family="sans-serif" font-size="13" lengthAdjust="spacing" textLength="188" x="564" y="168.0669">&#220;berwachung Eingangsstrom</text><text fill="#FF0000" font-family="sans-serif" font-size="13" lengthAdjust="spacing" textLength="127" x="594.5" y="183.1997">und Ladeparameter</text></g><!--link htank to Steuereinheit--><g id="link_htank_Steuereinheit"><path d="M178.302,106.414 C249.498,139.343 349.48,185.584 417.289,216.9462 " fill="none" id="htank-Steuereinheit" style="stroke:#0000FF;stroke-width:1.0;"/><text fill="#0000FF" font-family="sans-serif" font-size="13" lengthAdjust="spacing" textLength="57" x="353" y="175.5669">F&#252;llstand</text></g><!--link bzelle to Steuereinheit--><g id="link_bzelle_Steuereinheit"><path d="M383.837,88.815 C404.986,120.625 443.996,179.299 468.934,216.8072 " fill="none" id="bzelle-Steuereinheit" style="stroke:#008000;stroke-width:1.0;"/><text fill="#008000" font-family="sans-serif" font-size="13" lengthAdjust="spacing" textLength="76" x="450" y="175.5669">Temperatur</text></g><!--link Batterie to Steuereinheit--><g id="link_Batterie_Steuereinheit"><path d="M881.532,88.791 C856.422,116.114 810.102,161.872 761,187 C711.194,212.4886 651.01,228.1363 600.209,237.6212 " fill="none" id="Batterie-Steuereinheit" style="stroke:#90EE90;stroke-width:1.0;"/><text fill="#90EE90" font-family="sans-serif" font-size="13" lengthAdjust="spacing" textLength="87" x="809" y="168.0669">Ladezustandt</text><text fill="#90EE90" font-family="sans-serif" font-size="13" lengthAdjust="spacing" textLength="76" x="814.5" y="183.1997">Temperatur</text></g><!--SRC=[PL0nRiCm3Dpr2WAT_G4NNMAqKzibHJeq7UY8aOt8j27HRP6tz2dTyh7AKc8xiGQ1FF6EfzCeMA8dg0Jv01yAmfckT_IUd9Tsl_STrRkA72YbFXMtcg0yahLq9gqSCSV9Y5vcdb6J8sC3CSrDG6opS69H55cnWGsvFLP1AcAdtvBSD-ug0Oq-KXcQMfAvGnls8Kl0rkBQ1dhMDoyErXqozsmkVbOe0QufTMkXFhYfkQAWcWnUOTSUNyBGQoj-sFOLSccTIT9AfVmUBfdai-JK6SlcOUJHifeXsUWDyW7sYu7ink-T8tqlz2DvA20VqmgUuB5cWsnyLDdo4CqWrQ73XiAMi-6bPcbxIg931JaydVwi7UBKuqSM9EE8EB5Y2VaRDHqvbDwfyLjBdgrD9JForASCZdrSB5kUzFu1]--></g></svg>