<?xml version="1.0" encoding="us-ascii" standalone="no"?><svg xmlns="http://www.w3.org/2000/svg" xmlns:xlink="http://www.w3.org/1999/xlink" contentStyleType="text/css" height="1132px" preserveAspectRatio="none" style="width:482px;height:1132px;background:#FFFFFF;" version="1.1" viewBox="0 0 482 1132" width="482px" zoomAndPan="magnify"><defs/><g><polygon fill="none" points="20,10,118,10,125,32.2969,460,32.2969,460,1120.2031,20,1120.2031,20,10" style="stroke:#000000;stroke-width:1.5;"/><line style="stroke:#000000;stroke-width:1.5;" x1="20" x2="125" y1="32.2969" y2="32.2969"/><text fill="#000000" font-family="sans-serif" font-size="14" lengthAdjust="spacing" textLength="92" x="24" y="24.9951">Zusatzmodul</text><ellipse cx="230.5" cy="56.2969" fill="#222222" rx="10" ry="10" style="stroke:#222222;stroke-width:1.0;"/><rect fill="#F1F1F1" height="33.9688" rx="12.5" ry="12.5" style="stroke:#181818;stroke-width:0.5;" width="222" x="119.5" y="101.2969"/><text fill="#000000" font-family="sans-serif" font-size="12" lengthAdjust="spacing" textLength="202" x="129.5" y="122.4355">load analog port config from NVM</text><rect fill="#F1F1F1" height="33.9688" rx="12.5" ry="12.5" style="stroke:#181818;stroke-width:0.5;" width="172" x="144.5" y="218.668"/><text fill="#000000" font-family="sans-serif" font-size="12" lengthAdjust="spacing" textLength="152" x="154.5" y="239.8066">set config to NOT_ACTIVE</text><rect fill="#F1F1F1" height="33.9688" rx="12.5" ry="12.5" style="stroke:#181818;stroke-width:0.5;" width="266" x="97.5" y="287.6367"/><text fill="#000000" font-family="sans-serif" font-size="12" lengthAdjust="spacing" textLength="246" x="107.5" y="308.7754">send status over CAN: ports NOT_ACTIVE</text><polygon fill="#F1F1F1" points="188.5,170.2656,272.5,170.2656,284.5,182.2656,272.5,194.2656,188.5,194.2656,176.5,182.2656,188.5,170.2656" style="stroke:#181818;stroke-width:0.5;"/><text fill="#000000" font-family="sans-serif" font-size="11" lengthAdjust="spacing" textLength="14" x="234.5" y="204.4761">no</text><text fill="#000000" font-family="sans-serif" font-size="11" lengthAdjust="spacing" textLength="84" x="188.5" y="186.0737">validate config</text><text fill="#000000" font-family="sans-serif" font-size="11" lengthAdjust="spacing" textLength="21" x="284.5" y="179.6714">yes</text><polygon fill="#F1F1F1" points="230.5,346.0078,242.5,358.0078,230.5,370.0078,218.5,358.0078,230.5,346.0078" style="stroke:#181818;stroke-width:0.5;"/><rect fill="#F1F1F1" height="33.9688" rx="12.5" ry="12.5" style="stroke:#181818;stroke-width:0.5;" width="109" x="176" y="405.0078"/><text fill="#000000" font-family="sans-serif" font-size="12" lengthAdjust="spacing" textLength="89" x="186" y="426.1465">set port config</text><rect fill="#F1F1F1" height="33.9688" rx="12.5" ry="12.5" style="stroke:#181818;stroke-width:0.5;" width="140" x="160.5" y="555.9453"/><text fill="#000000" font-family="sans-serif" font-size="12" lengthAdjust="spacing" textLength="120" x="170.5" y="577.084">send data over CAN</text><rect fill="#F1F1F1" height="33.9688" rx="12.5" ry="12.5" style="stroke:#181818;stroke-width:0.5;" width="110" x="175.5" y="674.9258"/><text fill="#000000" font-family="sans-serif" font-size="12" lengthAdjust="spacing" textLength="90" x="185.5" y="696.0645">get new config</text><polygon fill="#F1F1F1" points="174.5,743.8945,286.5,743.8945,298.5,755.8945,286.5,767.8945,174.5,767.8945,162.5,755.8945,174.5,743.8945" style="stroke:#181818;stroke-width:0.5;"/><text fill="#000000" font-family="sans-serif" font-size="11" lengthAdjust="spacing" textLength="112" x="174.5" y="759.7026">validate new config</text><text fill="#000000" font-family="sans-serif" font-size="11" lengthAdjust="spacing" textLength="21" x="141.5" y="753.3003">yes</text><text fill="#000000" font-family="sans-serif" font-size="11" lengthAdjust="spacing" textLength="14" x="298.5" y="753.3003">no</text><rect fill="#F1F1F1" height="33.9688" rx="12.5" ry="12.5" style="stroke:#181818;stroke-width:0.5;" width="165" x="57" y="777.8945"/><text fill="#000000" font-family="sans-serif" font-size="12" lengthAdjust="spacing" textLength="145" x="67" y="799.0332">save new config to NVM</text><rect fill="#F1F1F1" height="33.9688" rx="12.5" ry="12.5" style="stroke:#181818;stroke-width:0.5;" width="138" x="70.5" y="846.8633"/><text fill="#000000" font-family="sans-serif" font-size="12" lengthAdjust="spacing" textLength="118" x="80.5" y="868.002">set new port config</text><rect fill="#F1F1F1" height="33.9688" rx="12.5" ry="12.5" style="stroke:#181818;stroke-width:0.5;" width="179" x="50" y="915.832"/><text fill="#000000" font-family="sans-serif" font-size="12" lengthAdjust="spacing" textLength="159" x="60" y="936.9707">send new status over CAN</text><rect fill="#F1F1F1" height="33.9688" rx="12.5" ry="12.5" style="stroke:#181818;stroke-width:0.5;" width="145" x="249" y="777.8945"/><text fill="#000000" font-family="sans-serif" font-size="12" lengthAdjust="spacing" textLength="125" x="259" y="799.0332">send error message</text><polygon fill="#F1F1F1" points="230.5,955.8008,242.5,967.8008,230.5,979.8008,218.5,967.8008,230.5,955.8008" style="stroke:#181818;stroke-width:0.5;"/><polygon fill="#F1F1F1" points="170.5,624.9141,290.5,624.9141,302.5,637.7188,290.5,650.5234,170.5,650.5234,158.5,637.7188,170.5,624.9141" style="stroke:#181818;stroke-width:0.5;"/><text fill="#000000" font-family="sans-serif" font-size="11" lengthAdjust="spacing" textLength="21" x="234.5" y="660.7339">yes</text><text fill="#000000" font-family="sans-serif" font-size="11" lengthAdjust="spacing" textLength="51" x="170.5" y="635.1245">Interrupt:</text><text fill="#000000" font-family="sans-serif" font-size="11" lengthAdjust="spacing" textLength="120" x="170.5" y="647.9292">new config over CAN</text><polygon fill="#F1F1F1" points="230.5,1004.2031,242.5,1016.2031,230.5,1028.2031,218.5,1016.2031,230.5,1004.2031" style="stroke:#181818;stroke-width:0.5;"/><rect fill="#F1F1F1" height="33.9688" rx="12.5" ry="12.5" style="stroke:#181818;stroke-width:0.5;" width="122" x="169.5" y="473.9766"/><text fill="#000000" font-family="sans-serif" font-size="12" lengthAdjust="spacing" textLength="102" x="179.5" y="495.1152">read analog data</text><polygon fill="#F1F1F1" points="217.5,1076.2031,243.5,1076.2031,255.5,1088.2031,243.5,1100.2031,217.5,1100.2031,205.5,1088.2031,217.5,1076.2031" style="stroke:#181818;stroke-width:0.5;"/><text fill="#000000" font-family="sans-serif" font-size="11" lengthAdjust="spacing" textLength="26" x="217.5" y="1092.0112">True</text><line style="stroke:#181818;stroke-width:1.0;" x1="230.5" x2="230.5" y1="66.2969" y2="101.2969"/><polygon fill="#181818" points="226.5,91.2969,230.5,101.2969,234.5,91.2969,230.5,95.2969" style="stroke:#181818;stroke-width:1.0;"/><line style="stroke:#181818;stroke-width:1.0;" x1="230.5" x2="230.5" y1="252.6367" y2="287.6367"/><polygon fill="#181818" points="226.5,277.6367,230.5,287.6367,234.5,277.6367,230.5,281.6367" style="stroke:#181818;stroke-width:1.0;"/><line style="stroke:#181818;stroke-width:1.0;" x1="230.5" x2="230.5" y1="194.2656" y2="218.668"/><polygon fill="#181818" points="226.5,208.668,230.5,218.668,234.5,208.668,230.5,212.668" style="stroke:#181818;stroke-width:1.0;"/><line style="stroke:#181818;stroke-width:1.0;" x1="284.5" x2="373.5" y1="182.2656" y2="182.2656"/><polygon fill="#181818" points="369.5,260.1367,373.5,270.1367,377.5,260.1367,373.5,264.1367" style="stroke:#181818;stroke-width:1.0;"/><line style="stroke:#181818;stroke-width:1.0;" x1="373.5" x2="373.5" y1="182.2656" y2="358.0078"/><line style="stroke:#181818;stroke-width:1.0;" x1="373.5" x2="242.5" y1="358.0078" y2="358.0078"/><polygon fill="#181818" points="252.5,354.0078,242.5,358.0078,252.5,362.0078,248.5,358.0078" style="stroke:#181818;stroke-width:1.0;"/><line style="stroke:#181818;stroke-width:1.0;" x1="230.5" x2="230.5" y1="321.6055" y2="346.0078"/><polygon fill="#181818" points="226.5,336.0078,230.5,346.0078,234.5,336.0078,230.5,340.0078" style="stroke:#181818;stroke-width:1.0;"/><line style="stroke:#181818;stroke-width:1.0;" x1="230.5" x2="230.5" y1="135.2656" y2="170.2656"/><polygon fill="#181818" points="226.5,160.2656,230.5,170.2656,234.5,160.2656,230.5,164.2656" style="stroke:#181818;stroke-width:1.0;"/><line style="stroke:#181818;stroke-width:1.0;" x1="230.5" x2="230.5" y1="370.0078" y2="405.0078"/><polygon fill="#181818" points="226.5,395.0078,230.5,405.0078,234.5,395.0078,230.5,399.0078" style="stroke:#181818;stroke-width:1.0;"/><line style="stroke:#181818;stroke-width:1.0;" x1="139.5" x2="139.5" y1="811.8633" y2="846.8633"/><polygon fill="#181818" points="135.5,836.8633,139.5,846.8633,143.5,836.8633,139.5,840.8633" style="stroke:#181818;stroke-width:1.0;"/><line style="stroke:#181818;stroke-width:1.0;" x1="139.5" x2="139.5" y1="880.832" y2="915.832"/><polygon fill="#181818" points="135.5,905.832,139.5,915.832,143.5,905.832,139.5,909.832" style="stroke:#181818;stroke-width:1.0;"/><line style="stroke:#181818;stroke-width:1.0;" x1="162.5" x2="139.5" y1="755.8945" y2="755.8945"/><line style="stroke:#181818;stroke-width:1.0;" x1="139.5" x2="139.5" y1="755.8945" y2="777.8945"/><polygon fill="#181818" points="135.5,767.8945,139.5,777.8945,143.5,767.8945,139.5,771.8945" style="stroke:#181818;stroke-width:1.0;"/><line style="stroke:#181818;stroke-width:1.0;" x1="298.5" x2="321.5" y1="755.8945" y2="755.8945"/><line style="stroke:#181818;stroke-width:1.0;" x1="321.5" x2="321.5" y1="755.8945" y2="777.8945"/><polygon fill="#181818" points="317.5,767.8945,321.5,777.8945,325.5,767.8945,321.5,771.8945" style="stroke:#181818;stroke-width:1.0;"/><line style="stroke:#181818;stroke-width:1.0;" x1="139.5" x2="139.5" y1="949.8008" y2="967.8008"/><line style="stroke:#181818;stroke-width:1.0;" x1="139.5" x2="218.5" y1="967.8008" y2="967.8008"/><polygon fill="#181818" points="208.5,963.8008,218.5,967.8008,208.5,971.8008,212.5,967.8008" style="stroke:#181818;stroke-width:1.0;"/><line style="stroke:#181818;stroke-width:1.0;" x1="321.5" x2="321.5" y1="811.8633" y2="967.8008"/><line style="stroke:#181818;stroke-width:1.0;" x1="321.5" x2="242.5" y1="967.8008" y2="967.8008"/><polygon fill="#181818" points="252.5,963.8008,242.5,967.8008,252.5,971.8008,248.5,967.8008" style="stroke:#181818;stroke-width:1.0;"/><line style="stroke:#181818;stroke-width:1.0;" x1="230.5" x2="230.5" y1="708.8945" y2="743.8945"/><polygon fill="#181818" points="226.5,733.8945,230.5,743.8945,234.5,733.8945,230.5,737.8945" style="stroke:#181818;stroke-width:1.0;"/><line style="stroke:#181818;stroke-width:1.0;" x1="230.5" x2="230.5" y1="650.5234" y2="674.9258"/><polygon fill="#181818" points="226.5,664.9258,230.5,674.9258,234.5,664.9258,230.5,668.9258" style="stroke:#181818;stroke-width:1.0;"/><line style="stroke:#181818;stroke-width:1.0;" x1="302.5" x2="414" y1="637.7188" y2="637.7188"/><polygon fill="#181818" points="410,816.9609,414,826.9609,418,816.9609,414,820.9609" style="stroke:#181818;stroke-width:1.0;"/><line style="stroke:#181818;stroke-width:1.0;" x1="414" x2="414" y1="637.7188" y2="1016.2031"/><line style="stroke:#181818;stroke-width:1.0;" x1="414" x2="242.5" y1="1016.2031" y2="1016.2031"/><polygon fill="#181818" points="252.5,1012.2031,242.5,1016.2031,252.5,1020.2031,248.5,1016.2031" style="stroke:#181818;stroke-width:1.0;"/><line style="stroke:#181818;stroke-width:1.0;" x1="230.5" x2="230.5" y1="979.8008" y2="1004.2031"/><polygon fill="#181818" points="226.5,994.2031,230.5,1004.2031,234.5,994.2031,230.5,998.2031" style="stroke:#181818;stroke-width:1.0;"/><line style="stroke:#181818;stroke-width:1.0;" x1="230.5" x2="230.5" y1="589.9141" y2="624.9141"/><polygon fill="#181818" points="226.5,614.9141,230.5,624.9141,234.5,614.9141,230.5,618.9141" style="stroke:#181818;stroke-width:1.0;"/><line style="stroke:#181818;stroke-width:1.0;" x1="230.5" x2="230.5" y1="507.9453" y2="555.9453"/><polygon fill="#181818" points="226.5,545.9453,230.5,555.9453,234.5,545.9453,230.5,549.9453" style="stroke:#181818;stroke-width:1.0;"/><line style="stroke:#181818;stroke-width:1.0;" x1="255.5" x2="438" y1="1088.2031" y2="1088.2031"/><polygon fill="#181818" points="434,799.582,438,789.582,442,799.582,438,795.582" style="stroke:#181818;stroke-width:1.0;"/><line style="stroke:#181818;stroke-width:1.0;" x1="438" x2="438" y1="490.9609" y2="1088.2031"/><line style="stroke:#181818;stroke-width:1.0;" x1="438" x2="291.5" y1="490.9609" y2="490.9609"/><polygon fill="#181818" points="301.5,486.9609,291.5,490.9609,301.5,494.9609,297.5,490.9609" style="stroke:#181818;stroke-width:1.0;"/><line style="stroke:#181818;stroke-width:1.0;" x1="230.5" x2="230.5" y1="1028.2031" y2="1076.2031"/><polygon fill="#181818" points="226.5,1066.2031,230.5,1076.2031,234.5,1066.2031,230.5,1070.2031" style="stroke:#181818;stroke-width:1.0;"/><line style="stroke:#181818;stroke-width:1.0;" x1="230.5" x2="230.5" y1="438.9766" y2="473.9766"/><polygon fill="#181818" points="226.5,463.9766,230.5,473.9766,234.5,463.9766,230.5,467.9766" style="stroke:#181818;stroke-width:1.0;"/><!--SRC=[NL7BReCm4BpxA_O8ls1EKPH33gKNb4DKgLg5XQ0Q6_b1b5Rzzwu11-Z5idPcFGyFUFl2bk0Q7FhltjH1mOzm7gq78QGoM0DgLAQ5mV3iPdJJjT1OqqDvUIj4rsGZggv6JmkOWx-JXaoRN4X7hnrle7olFW_7wdmv5H7IDR2I3mxCI1QEXr9EAcv79EK8iYUvNF16ryoFRjmKGbWQ23r8IwjVjeH99jvV8j4qP6VjoTemUFcXDJsIoqHAAIPT8LkMN5cikCsz0hijwN3SWbC3iRCfG9plGinEu_XVAQc2fL0ciN5ZeIVd-E-AfPRvJ5KyxftYdSe6Ol-_Vm00]--></g></svg>