<?xml version="1.0" encoding="us-ascii" standalone="no"?><svg xmlns="http://www.w3.org/2000/svg" xmlns:xlink="http://www.w3.org/1999/xlink" contentStyleType="text/css" height="146px" preserveAspectRatio="none" style="width:330px;height:146px;background:#FFFFFF;" version="1.1" viewBox="0 0 330 146" width="330px" zoomAndPan="magnify"><defs/><g><!--class PortStructure--><g id="elem_PortStructure"><rect codeLine="2" fill="#F1F1F1" height="80.5938" id="PortStructure" rx="2.5" ry="2.5" style="stroke:#181818;stroke-width:0.5;" width="131" x="7" y="7"/><ellipse cx="22" cy="23" fill="#ADD1B2" rx="11" ry="11" style="stroke:#181818;stroke-width:1.0;"/><path d="M24.3438,18.6719 C23.4063,18.2344 22.8125,18.0938 21.9375,18.0938 C19.3125,18.0938 17.3125,20.1719 17.3125,22.8906 L17.3125,24.0156 C17.3125,26.5938 19.4219,28.4844 22.3125,28.4844 C23.5313,28.4844 24.6875,28.1875 25.4375,27.6406 C26.0156,27.2344 26.3438,26.7813 26.3438,26.3906 C26.3438,25.9375 25.9531,25.5469 25.4844,25.5469 C25.2656,25.5469 25.0625,25.625 24.875,25.8125 C24.4219,26.2969 24.4219,26.2969 24.2344,26.3906 C23.8125,26.6563 23.125,26.7813 22.3594,26.7813 C20.3125,26.7813 19.0156,25.6875 19.0156,23.9844 L19.0156,22.8906 C19.0156,21.1094 20.2656,19.7969 22,19.7969 C22.5781,19.7969 23.1875,19.9531 23.6563,20.2031 C24.1406,20.4844 24.3125,20.7031 24.4063,21.1094 C24.4688,21.5156 24.5,21.6406 24.6406,21.7656 C24.7813,21.9063 25.0156,22.0156 25.2344,22.0156 C25.5,22.0156 25.7656,21.875 25.9375,21.6563 C26.0469,21.5 26.0781,21.3125 26.0781,20.8906 L26.0781,19.4688 C26.0781,19.0313 26.0625,18.9063 25.9688,18.75 C25.8125,18.4844 25.5313,18.3438 25.2344,18.3438 C24.9375,18.3438 24.7344,18.4375 24.5156,18.75 L24.3438,18.6719 Z " fill="#000000"/><text fill="#000000" font-family="sans-serif" font-size="14" lengthAdjust="spacing" textLength="99" x="36" y="27.8467">PortStructure</text><line style="stroke:#181818;stroke-width:0.5;" x1="8" x2="137" y1="39" y2="39"/><text fill="#000000" font-family="sans-serif" font-size="14" lengthAdjust="spacing" textLength="87" x="13" y="55.9951">uint8 portID</text><line style="stroke:#181818;stroke-width:1.0;stroke-dasharray:1.0,2.0;" x1="8" x2="137" y1="63.2969" y2="63.2969"/><text fill="#000000" font-family="sans-serif" font-size="14" lengthAdjust="spacing" textLength="111" x="13" y="80.292">enum PortType</text></g><!--class PortType--><g id="elem_PortType"><rect codeLine="8" fill="#F1F1F1" height="129.1875" id="PortType" rx="2.5" ry="2.5" style="stroke:#181818;stroke-width:0.5;" width="117" x="206" y="10.5"/><ellipse cx="229.1" cy="26.5" fill="#EB937F" rx="11" ry="11" style="stroke:#181818;stroke-width:1.0;"/><path d="M227.8969,27.375 L229.35,27.375 L229.35,27.4844 C229.35,27.8906 229.3813,28.0469 229.4594,28.2031 C229.6156,28.4531 229.8969,28.6094 230.1938,28.6094 C230.4438,28.6094 230.7094,28.4688 230.8656,28.25 C230.9906,28.0938 231.0219,27.9375 231.0219,27.4844 L231.0219,25.5625 C231.0219,25.4063 231.0219,25.3594 231.0063,25.2031 C230.9438,24.7344 230.6313,24.4219 230.1781,24.4219 C229.9281,24.4219 229.6625,24.5625 229.4906,24.7813 C229.3813,24.9531 229.35,25.1094 229.35,25.5625 L229.35,25.6875 L227.8969,25.6875 L227.8969,23.2813 L231.8813,23.2813 L231.8813,24.1406 C231.8813,24.5469 231.9125,24.7188 231.9906,24.875 C232.1625,25.125 232.4438,25.2813 232.725,25.2813 C232.9906,25.2813 233.2563,25.1406 233.4281,24.9219 C233.5375,24.75 233.5688,24.6094 233.5688,24.1406 L233.5688,21.5938 L225.9438,21.5938 C225.5063,21.5938 225.3813,21.6094 225.225,21.7031 C224.975,21.8594 224.8188,22.1563 224.8188,22.4375 C224.8188,22.7188 224.9594,22.9688 225.1781,23.1406 C225.3344,23.25 225.5219,23.2813 225.9438,23.2813 L226.1938,23.2813 L226.1938,29.7969 L225.9438,29.7969 C225.5375,29.7969 225.3813,29.8125 225.225,29.9219 C224.975,30.0938 224.8188,30.3594 224.8188,30.6563 C224.8188,30.9219 224.9594,31.1719 225.1781,31.3281 C225.3188,31.4531 225.5531,31.5 225.9438,31.5 L233.9438,31.5 L233.9438,28.9219 C233.9438,28.4844 233.9125,28.3438 233.8344,28.1875 C233.6625,27.9375 233.3813,27.7813 233.1,27.7813 C232.8344,27.7813 232.5688,27.8906 232.3969,28.1406 C232.2875,28.2969 232.2563,28.4375 232.2563,28.9219 L232.2563,29.7969 L227.8969,29.7969 L227.8969,27.375 Z " fill="#000000"/><text fill="#000000" font-family="sans-serif" font-size="14" lengthAdjust="spacing" textLength="67" x="244.9" y="31.3467">PortType</text><line style="stroke:#181818;stroke-width:0.5;" x1="207" x2="322" y1="42.5" y2="42.5"/><text fill="#000000" font-family="sans-serif" font-size="14" lengthAdjust="spacing" textLength="89" x="212" y="59.4951">NOT_ACTIVE</text><line style="stroke:#181818;stroke-width:1.0;stroke-dasharray:1.0,2.0;" x1="207" x2="322" y1="66.7969" y2="66.7969"/><text fill="#000000" font-family="sans-serif" font-size="14" lengthAdjust="spacing" textLength="68" x="212" y="83.792">VOLTAGE</text><line style="stroke:#181818;stroke-width:1.0;stroke-dasharray:1.0,2.0;" x1="207" x2="322" y1="91.0938" y2="91.0938"/><text fill="#000000" font-family="sans-serif" font-size="14" lengthAdjust="spacing" textLength="67" x="212" y="108.0889">CURRENT</text><line style="stroke:#181818;stroke-width:1.0;stroke-dasharray:1.0,2.0;" x1="207" x2="322" y1="115.3906" y2="115.3906"/><text fill="#000000" font-family="sans-serif" font-size="14" lengthAdjust="spacing" textLength="105" x="212" y="132.3857">TEMPERATURE</text></g><!--reverse link PortStructure to PortType--><g id="link_PortStructure_PortType"><path codeLine="19" d="M151.5,75 C173.135,75 184.894,75 205.775,75 " fill="none" id="PortStructure-backto-PortType" style="stroke:#181818;stroke-width:1.0;"/><polygon fill="#181818" points="139.5,75,145.5,79,151.5,75,145.5,71,139.5,75" style="stroke:#181818;stroke-width:1.0;"/></g><!--SRC=[oqbDAr4eoLSeoapFA558oInAJIx9pC_ZIiv9B2vM2CWlAWakAIfDBYajIgtcAitCAx5GA00AUhfmwUbnfUQLveBLX5GMf7BLSg49L7Cf086VVqYyetE8PvWhc0lK1gB2_7r27DrHX9n3Wu9S_KAGXK9SVGDSWnn3GeDSGSQZECVA2cQHWfQkBjnM0000]--></g></svg>